<?xml version="1.0" standalone="no"?>
<!DOCTYPE svg PUBLIC "-//W3C//DTD SVG 20010904//EN"
 "http://www.w3.org/TR/2001/REC-SVG-20010904/DTD/svg10.dtd">
<svg version="1.0" xmlns="http://www.w3.org/2000/svg"
 width="443.000000pt" height="443.000000pt" viewBox="0 0 443.000000 443.000000"
 preserveAspectRatio="xMidYMid meet">

<g transform="translate(0.000000,443.000000) scale(0.100000,-0.100000)"
fill="#000000" stroke="none">
<path d="M1163 4268 c-33 -56 -43 -98 -43 -177 0 -127 64 -235 184 -313 33
-21 63 -38 68 -38 28 0 -17 212 -68 322 -15 32 -24 61 -20 65 11 11 61 -51 90
-114 40 -84 49 -134 44 -251 -7 -145 -33 -205 -109 -252 -150 -91 -346 -263
-459 -400 -73 -89 -163 -228 -215 -330 -94 -187 -142 -335 -181 -553 -23 -129
-25 -160 -21 -337 4 -208 23 -332 73 -495 141 -457 465 -847 902 -1083 51 -28
109 -56 130 -63 20 -6 42 -15 47 -19 18 -14 238 -77 330 -95 50 -10 155 -20
235 -22 338 -10 741 104 1034 295 329 213 581 523 719 882 122 318 157 650
102 967 -28 159 -48 229 -106 380 -22 55 -41 110 -44 121 -2 10 -17 39 -33 63
-16 24 -41 64 -55 89 -14 25 -40 65 -59 90 -32 44 -33 47 -33 150 0 99 -2 109
-34 175 -29 59 -60 95 -200 235 -212 212 -322 315 -287 270 15 -19 69 -89 120
-155 134 -174 228 -315 221 -333 -5 -13 -8 -12 -27 4 -33 30 -258 276 -372
407 -92 105 -77 71 18 -43 88 -106 290 -382 301 -413 5 -13 2 -17 -13 -17 -11
0 -22 4 -24 9 -1 4 -60 69 -129 142 -70 74 -159 172 -199 219 -91 107 -90 106
-90 94 0 -5 17 -30 38 -55 20 -25 47 -59 59 -75 12 -16 74 -95 136 -176 140
-179 162 -214 140 -222 -17 -7 -53 28 -178 169 -44 50 -83 92 -86 95 -3 3 -45
50 -93 105 -48 55 -93 102 -99 104 -14 5 -10 -1 133 -184 63 -81 136 -175 162
-209 26 -33 57 -73 68 -89 21 -26 21 -57 2 -57 -13 0 -221 217 -331 345 -116
135 -116 135 -107 112 6 -19 77 -123 251 -370 159 -225 214 -267 376 -288 145
-18 193 -57 278 -226 79 -159 142 -366 161 -535 13 -111 12 -322 -1 -433 -42
-346 -223 -740 -453 -982 -230 -243 -484 -388 -826 -469 -102 -24 -139 -28
-326 -32 -121 -2 -239 0 -275 6 -408 67 -708 217 -960 479 -231 241 -392 576
-440 918 -17 117 -17 435 -1 550 58 401 243 773 521 1053 83 83 136 126 269
221 55 39 88 55 130 63 96 17 244 -4 292 -43 l25 -21 -35 6 c-19 3 -55 10 -80
15 -52 12 -173 14 -218 5 l-31 -6 46 -46 c110 -106 265 -139 409 -87 41 15 77
31 80 36 9 15 -72 116 -124 154 -122 88 -278 97 -400 23 -55 -34 -60 -8 -10
49 108 124 245 196 416 218 58 8 109 12 114 9 15 -9 8 -24 -11 -24 -25 0 -179
-39 -199 -50 -10 -6 -43 -21 -74 -34 -32 -14 -58 -29 -58 -33 0 -5 31 -21 70
-36 155 -60 306 -19 466 126 48 44 48 46 29 61 -11 9 -49 30 -85 48 -61 30
-72 32 -170 33 -95 0 -111 -3 -170 -30 -92 -42 -146 -79 -217 -152 -63 -63
-89 -78 -79 -45 50 164 -1 334 -138 459 -42 39 -148 103 -169 103 -3 0 -14
-15 -24 -32z"/>
<path d="M1514 3189 c-137 -73 -306 -214 -417 -347 -185 -221 -287 -445 -343
-746 -66 -354 13 -743 214 -1061 146 -230 390 -446 632 -558 47 -21 93 -43
102 -48 21 -11 141 -46 223 -66 87 -20 331 -28 450 -14 172 20 377 85 533 167
321 171 580 458 707 784 42 110 61 171 75 245 6 33 16 78 21 100 6 22 13 99
16 172 l6 131 -62 -21 -61 -22 0 -49 c0 -81 -39 -304 -71 -405 -164 -517 -539
-860 -1059 -967 -165 -34 -460 -26 -594 17 -34 10 -67 19 -74 19 -7 0 -54 16
-104 36 -384 150 -639 421 -781 829 -211 604 12 1340 521 1717 75 56 116 84
149 102 l28 15 -26 1 c-14 0 -53 -14 -85 -31z"/>
<path d="M3176 2228 c-22 -31 -20 -64 6 -88 25 -23 37 -25 73 -8 58 26 38 111
-27 116 -28 2 -40 -2 -52 -20z"/>
<path d="M3527 2232 c-39 -43 -8 -112 49 -112 32 0 67 47 59 79 -12 49 -76 68
-108 33z"/>
<path d="M1302 2096 c-29 -6 -53 -15 -52 -21 1 -33 38 -134 81 -221 112 -230
277 -389 480 -460 60 -22 98 -27 202 -31 107 -5 127 -3 127 9 0 26 -52 90
-196 244 -57 60 -224 195 -304 244 -11 7 -12 12 -3 21 15 15 140 -44 259 -122
82 -54 227 -193 281 -269 48 -68 123 -206 155 -283 27 -67 69 -213 72 -251 2
-30 -18 -29 -37 3 -34 59 -121 154 -182 199 -191 144 -396 186 -608 126 -132
-38 -297 -125 -297 -158 0 -20 134 -160 203 -211 218 -164 492 -195 747 -83
28 12 50 24 50 27 -1 9 -86 64 -162 106 -101 55 -189 85 -330 115 -70 14 -131
29 -134 33 -13 12 189 7 268 -7 80 -15 181 -51 245 -88 91 -53 206 -157 276
-250 l35 -47 0 127 c0 70 5 158 12 195 32 202 135 395 285 535 84 78 233 170
292 179 l38 6 -75 -60 c-97 -79 -220 -207 -298 -310 -34 -45 -62 -85 -62 -89
0 -4 -6 -15 -13 -23 -8 -9 -29 -43 -47 -75 l-33 -59 106 7 c59 4 134 15 168
26 34 11 67 20 74 20 19 0 145 69 200 110 98 73 186 184 232 295 31 72 44 165
41 275 l-3 95 -90 3 c-204 7 -400 -49 -550 -156 -68 -49 -191 -168 -227 -220
-64 -92 -138 -276 -138 -343 0 -13 -4 -30 -9 -38 -7 -11 -14 2 -26 45 -51 187
-115 331 -206 466 -80 117 -220 238 -358 308 -24 12 -87 33 -139 46 -105 27
-254 31 -350 10z"/>
<path d="M2842 2090 c-17 -28 -15 -64 6 -83 22 -20 73 -22 90 -5 16 16 16 80
0 96 -20 20 -81 15 -96 -8z"/>
<path d="M2522 1973 c-31 -28 -35 -56 -11 -86 28 -36 70 -36 98 -1 27 34 26
50 -4 79 -28 29 -55 32 -83 8z"/>
<path d="M1114 1955 c-27 -41 4 -95 55 -95 34 0 61 28 61 62 0 56 -85 81 -116
33z"/>
<path d="M2296 1748 c-31 -43 -13 -86 41 -102 26 -8 73 31 73 61 0 35 -29 63
-65 63 -24 0 -39 -7 -49 -22z"/>
<path d="M1192 1680 c-29 -27 -28 -55 3 -85 29 -30 54 -32 83 -5 27 26 28 64
2 90 -26 26 -60 25 -88 0z"/>
<path d="M1356 1448 c-22 -30 -20 -61 4 -83 25 -22 65 -22 90 0 42 38 12 105
-45 105 -24 0 -39 -7 -49 -22z"/>
</g>
</svg>
